<?xml version="1.0" standalone="no"?>
<!DOCTYPE svg PUBLIC "-//W3C//DTD SVG 20010904//EN"
 "http://www.w3.org/TR/2001/REC-SVG-20010904/DTD/svg10.dtd">
<svg version="1.0" xmlns="http://www.w3.org/2000/svg"
 width="1080.000000pt" height="1080.000000pt" viewBox="0 0 1080.000000 1080.000000"
 preserveAspectRatio="xMidYMid meet">

<g transform="translate(0.000000,1080.000000) scale(0.100000,-0.100000)"
fill="#010101" stroke="none">
<path d="M5238 10426 c-38 -13 -89 -36 -115 -51 -60 -34 -4605 -4572 -4667
-4660 -119 -167 -136 -362 -50 -544 34 -72 56 -96 388 -428 332 -332 355 -354
426 -387 121 -57 234 -70 359 -41 150 36 30 -77 1971 1862 1338 1337 1793
1785 1818 1792 20 6 44 6 64 0 25 -7 480 -455 1818 -1792 1552 -1550 1793
-1788 1846 -1815 171 -88 381 -79 539 23 28 18 201 185 387 371 366 369 380
388 414 531 31 131 1 293 -75 408 -27 40 -815 834 -2343 2361 -2478 2475
-2332 2335 -2477 2378 -84 25 -221 21 -303 -8z"/>
<path d="M5273 7045 c-148 -41 -59 42 -1641 -1538 -805 -804 -1478 -1485
-1497 -1513 -19 -28 -46 -87 -61 -130 -23 -70 -26 -90 -22 -184 5 -115 25
-182 78 -261 16 -24 690 -704 1497 -1511 1313 -1312 1475 -1469 1530 -1497
169 -84 335 -81 495 7 59 32 253 222 1535 1502 1249 1246 1473 1474 1500 1525
87 166 89 342 6 510 -20 40 -328 353 -1491 1518 -807 808 -1486 1482 -1509
1498 -108 76 -297 109 -420 74z"/>
</g>
</svg>
