<?xml version="1.0" standalone="no"?>
<!DOCTYPE svg PUBLIC "-//W3C//DTD SVG 20010904//EN"
 "http://www.w3.org/TR/2001/REC-SVG-20010904/DTD/svg10.dtd">
<svg version="1.0" xmlns="http://www.w3.org/2000/svg"
 width="300" height="100" viewBox="0 0 863.000000 200.000000"
 preserveAspectRatio="xMidYMid meet">

<g transform="translate(0.000000,200.000000) scale(0.100000,-0.100000)"
stroke="none">
<path d="M955 1936 c-16 -8 -231 -216 -478 -463 l-447 -449 0 -48 c0 -47 2
-51 78 -126 83 -83 115 -98 167 -75 16 7 183 166 370 354 187 188 344 341 350
341 5 0 165 -155 355 -344 190 -190 358 -350 374 -356 48 -18 87 3 170 90 123
129 159 72 -386 616 -491 490 -489 489 -553 460z" fill="#475be8"/>
<path d="M2675 1578 c-3 -13 -19 -111 -35 -218 -17 -107 -41 -265 -55 -350
-13 -85 -38 -247 -55 -360 -17 -113 -35 -224 -40 -248 -9 -52 -6 -54 76 -50
l59 3 12 85 c7 47 18 115 24 153 l11 67 124 0 c120 0 124 -1 129 -22 5 -23 45
-274 45 -283 0 -3 32 -5 70 -5 81 0 76 -9 54 116 -15 90 -30 178 -84 489 -16
94 -47 275 -70 403 -22 129 -40 236 -40 238 0 2 -49 4 -110 4 -105 0 -110 -1
-115 -22z m173 -461 c29 -176 49 -323 46 -328 -7 -12 -191 -11 -199 1 -6 10
-5 19 50 395 19 132 35 247 35 255 0 8 3 10 8 5 5 -6 32 -153 60 -328z" fill="#010101"/>
<path d="M5467 1593 c-4 -3 -7 -285 -7 -625 l0 -618 245 0 245 0 0 60 0 60
-169 0 c-145 0 -170 2 -175 16 -11 29 -7 432 5 440 6 3 64 6 128 5 137 -2 144
2 139 76 l-3 48 -135 5 -135 5 -3 194 c-2 134 1 198 9 207 9 11 47 14 164 14
l153 0 4 50 c1 28 2 55 0 60 -4 11 -454 14 -465 3z" fill="#010101"/>
<path d="M6678 1403 l-3 -78 -43 -3 -43 -3 3 -57 3 -57 43 -3 42 -3 0 -372 c0
-334 2 -376 18 -407 26 -52 70 -70 175 -70 l88 0 -3 63 -3 62 -55 3 c-37 2
-59 8 -67 19 -10 13 -13 101 -13 359 l0 343 68 3 67 3 3 57 3 57 -68 3 -68 3
-3 78 -3 77 -69 0 -69 0 -3 -77z" fill="#010101"/>
<path d="M7735 1468 c-3 -7 -6 -42 -7 -78 l-3 -65 -37 -3 -38 -3 0 -60 0 -59
39 0 40 0 3 -377 c3 -334 5 -382 20 -409 27 -49 73 -65 175 -62 l88 3 3 39 c2
22 1 50 -2 63 -6 20 -12 23 -59 23 -88 0 -82 -26 -82 367 l0 348 70 5 70 5 0
55 0 55 -65 3 c-36 2 -68 8 -72 15 -4 7 -8 42 -8 80 l0 67 -65 0 c-44 0 -67
-4 -70 -12z" fill="#010101"/>
<path d="M3232 693 l3 -628 65 0 65 0 3 158 c1 86 6 157 10 157 4 -1 18 -7 32
-15 17 -10 56 -14 120 -15 110 0 152 17 176 75 21 51 21 769 0 820 -24 58 -66
75 -176 75 -64 -1 -103 -5 -120 -15 -32 -18 -40 -18 -40 0 0 12 -14 15 -70 15
l-70 0 2 -627z m336 495 c17 -17 17 -689 0 -706 -19 -19 -162 -16 -179 5 -11
13 -14 81 -14 348 0 267 3 335 14 348 17 21 160 24 179 5z" fill="#010101"/>
<path d="M3960 1303 c-69 -35 -70 -42 -70 -466 0 -418 2 -430 62 -467 29 -18
50 -20 181 -20 223 0 251 20 251 180 l1 85 -67 3 -68 3 0 -56 c0 -90 -5 -95
-110 -95 -78 0 -91 2 -100 19 -5 11 -10 81 -10 155 l0 136 173 0 c121 0 177 4
185 12 15 15 17 346 1 416 -6 33 -20 59 -40 78 l-30 29 -162 3 c-139 2 -167 0
-197 -15z m278 -115 c8 -8 12 -55 12 -145 l0 -133 -110 0 -110 0 0 126 c0 69
5 134 10 145 9 17 22 19 98 19 55 0 92 -4 100 -12z" fill="#010101"/>
<path d="M4500 1310 c0 -5 47 -109 105 -231 58 -123 105 -226 105 -231 0 -4
-52 -114 -115 -245 -63 -130 -115 -240 -115 -245 0 -4 33 -8 73 -8 l72 0 68
153 c71 160 83 184 90 177 2 -3 37 -78 77 -167 l73 -163 73 0 c41 0 74 2 74 5
0 2 -52 111 -115 241 -63 130 -115 243 -115 250 0 7 47 115 105 239 58 125
105 229 105 231 0 2 -33 4 -74 4 l-74 0 -63 -155 c-35 -85 -66 -155 -69 -155
-3 0 -35 70 -70 155 l-65 155 -72 0 c-40 0 -73 -4 -73 -10z" fill="#010101"/>
<path d="M6123 1300 c-60 -36 -68 -65 -68 -255 0 -245 15 -265 205 -275 l105
-5 0 -145 0 -145 -68 -3 c-41 -2 -74 2 -82 8 -8 7 -15 36 -17 68 l-3 57 -65 0
-65 0 -3 -72 c-3 -87 14 -135 60 -163 29 -17 50 -20 164 -20 120 0 134 2 165
23 55 37 59 54 59 247 0 158 -2 178 -20 208 -29 47 -73 62 -178 62 -64 0 -93
4 -101 14 -8 9 -11 59 -9 152 l3 139 77 3 c87 3 85 5 90 -88 l3 -45 65 0 65 0
3 77 c3 90 -11 128 -61 158 -27 17 -51 20 -162 20 -111 0 -135 -3 -162 -20z" fill="#010101"/>
<path d="M7123 1300 c-68 -41 -68 -43 -68 -460 0 -418 2 -430 67 -470 44 -27
210 -29 247 -4 22 16 24 16 33 0 7 -12 24 -16 78 -16 l70 0 0 485 0 485 -66 0
c-51 0 -70 -4 -79 -17 -11 -15 -14 -15 -36 0 -36 26 -203 24 -246 -3z m265
-112 c9 -9 12 -101 12 -353 0 -252 -3 -344 -12 -353 -16 -16 -160 -16 -176 0
-9 9 -12 101 -12 353 0 252 3 344 12 353 7 7 42 12 88 12 46 0 81 -5 88 -12z" fill="#010101"/>
<path d="M8195 1306 c-17 -7 -40 -26 -50 -42 -19 -27 -20 -51 -23 -412 -4
-521 -14 -502 256 -502 138 0 151 2 182 23 44 29 62 83 58 172 l-3 70 -65 0
-65 0 -5 -60 c-3 -33 -9 -66 -13 -72 -6 -9 -37 -13 -97 -13 -78 0 -91 2 -100
19 -5 11 -10 81 -10 155 l0 136 179 0 c154 0 180 2 185 16 11 27 6 373 -5 419
-6 24 -24 55 -41 72 l-29 28 -162 2 c-120 2 -170 -1 -192 -11z m273 -118 c8
-8 12 -55 12 -145 l0 -133 -110 0 -110 0 0 119 c0 66 4 131 10 145 9 25 12 26
98 26 55 0 92 -4 100 -12z" fill="#010101"/>
<path d="M933 1267 c-17 -12 -153 -145 -301 -294 -288 -289 -296 -300 -269
-364 9 -20 134 -152 299 -316 l284 -283 50 0 49 0 297 298 298 297 0 45 0 45
-298 297 c-291 291 -299 298 -338 298 -26 0 -51 -8 -71 -23z" fill="#475be8"/>
</g>
</svg>
